<svg xmlns="http://www.w3.org/2000/svg" viewBox="0 0 760 180" role="img" aria-labelledby="title desc">
  <title id="title">DialectOS logo</title>
  <desc id="desc">A speech-bubble globe mark beside the DialectOS wordmark.</desc>
  <defs>
    <filter id="softShadow" x="-20%" y="-30%" width="140%" height="180%">
      <feDropShadow dx="0" dy="8" stdDeviation="10" flood-color="#171614" flood-opacity="0.14"/>
    </filter>
  </defs>
  <g filter="url(#softShadow)">
    <path d="M34 89c0-28 23-51 51-51h34c28 0 51 23 51 51s-23 51-51 51H94l-31 22 7-27c-21-7-36-25-36-46Z" fill="none" stroke="#D89B2B" stroke-width="8" stroke-linejoin="round"/>
    <path d="M84 61c-11 10-17 24-17 38 0 15 6 29 17 39" fill="none" stroke="#213E60" stroke-width="6" stroke-linecap="round"/>
    <path d="M120 56c-15 12-24 29-24 43 0 15 9 31 24 45" fill="none" stroke="#213E60" stroke-width="6" stroke-linecap="round"/>
    <path d="M144 61c11 10 17 24 17 38 0 15-6 29-17 39" fill="none" stroke="#213E60" stroke-width="6" stroke-linecap="round"/>
    <path d="M67 89h94" fill="none" stroke="#213E60" stroke-width="6" stroke-linecap="round"/>
    <circle cx="114" cy="89" r="11" fill="#F7F1E3" stroke="#171614" stroke-width="3"/>
  </g>
  <g transform="translate(208 0)">
    <text x="0" y="116" font-family="Inter, ui-sans-serif, system-ui, -apple-system, BlinkMacSystemFont, 'Segoe UI', sans-serif" font-size="86" font-weight="800" letter-spacing="-4" fill="#F7F1E3" stroke="#171614" stroke-width="4" paint-order="stroke fill">DialectOS</text>
  </g>
</svg>
